<?xml version="1.0" encoding="UTF-8" standalone="no"?>
<svg
   xmlns:osb="http://www.openswatchbook.org/uri/2009/osb"
   xmlns:dc="http://purl.org/dc/elements/1.1/"
   xmlns:cc="http://creativecommons.org/ns#"
   xmlns:rdf="http://www.w3.org/1999/02/22-rdf-syntax-ns#"
   xmlns:svg="http://www.w3.org/2000/svg"
   xmlns="http://www.w3.org/2000/svg"
   xmlns:sodipodi="http://sodipodi.sourceforge.net/DTD/sodipodi-0.dtd"
   xmlns:inkscape="http://www.inkscape.org/namespaces/inkscape"
   version="1.0"
   width="768.000000pt"
   height="768.000000pt"
   viewBox="0 0 768.000000 768.000000"
   preserveAspectRatio="xMidYMid meet"
   id="svg3336"
   inkscape:version="0.91 r13725"
   sodipodi:docname="safari-pinned-tab.svg"
   inkscape:export-filename="C:\Users\Ryc\Downloads\icon128.png"
   inkscape:export-xdpi="12"
   inkscape:export-ydpi="12">
  <defs
     id="defs3346">
    <linearGradient
       id="linearGradient5588"
       osb:paint="solid">
      <stop
         style="stop-color:#a71c2e;stop-opacity:1;"
         offset="0"
         id="stop5590" />
    </linearGradient>
  </defs>
  <sodipodi:namedview
     pagecolor="#ffffff"
     bordercolor="#666666"
     borderopacity="1"
     objecttolerance="10"
     gridtolerance="10"
     guidetolerance="10"
     inkscape:pageopacity="0"
     inkscape:pageshadow="2"
     inkscape:window-width="1920"
     inkscape:window-height="1027"
     id="namedview3344"
     showgrid="false"
     showguides="false"
     inkscape:zoom="0.89583333"
     inkscape:cx="313.11628"
     inkscape:cy="480"
     inkscape:window-x="-8"
     inkscape:window-y="-8"
     inkscape:window-maximized="1"
     inkscape:current-layer="svg3336">
    <inkscape:grid
       type="xygrid"
       id="grid3348" />
  </sodipodi:namedview>
  <metadata
     id="metadata3338">
Created by potrace 1.11, written by Peter Selinger 2001-2013
<rdf:RDF>
  <cc:Work
     rdf:about="">
    <dc:format>image/svg+xml</dc:format>
    <dc:type
       rdf:resource="http://purl.org/dc/dcmitype/StillImage" />
  </cc:Work>
</rdf:RDF>
</metadata>
  <g
     transform="translate(0.000000,768.000000) scale(0.100000,-0.100000)"
     fill="#000000"
     stroke="none"
     id="g3340"
     style="fill:#a71c2e;fill-opacity:1">
    <path
       d="M6106 7390 c10 -79 6 -431 -6 -555 -49 -520 -200 -959 -432 -1260 l-54 -69 -174 -2 c-219 -1 -345 -21 -548 -85 -211 -67 -508 -217 -678 -343 -23 -17 -55 -40 -70 -51 -59 -42 -132 -102 -211 -172 -45 -40 -85 -73 -88 -73 -3 0 -47 37 -98 81 -487 431 -1078 674 -1564 645 l-101 -6 -49 62 c-297 380 -463 972 -457 1628 1 96 4 189 7 205 l6 30 -35 -40 c-88 -101 -269 -398 -357 -586 -71 -150 -82 -177 -130 -304 -134 -356 -196 -679 -202 -1060 -4 -241 2 -330 36 -533 19 -118 20 -125 3 -150 -72 -110 -150 -298 -187 -452 -117 -480 -12 -997 297 -1468 186 -286 418 -536 866 -936 78 -70 362 -303 670 -549 632 -507 900 -736 1196 -1020 51 -49 95 -89 99 -89 3 1 50 43 104 94 198 189 359 332 581 517 74 62 145 122 158 133 29 24 174 142 228 184 394 315 812 656 870 709 6 5 29 25 50 44 754 664 1092 1175 1169 1770 14 103 14 389 0 456 -3 17 -10 55 -16 85 -30 158 -96 335 -174 471 -38 67 -46 87 -41 113 33 160 48 319 51 531 2 127 -1 264 -5 305 -17 143 -22 176 -36 260 -57 331 -200 733 -374 1054 -70 127 -232 380 -284 441 l-26 30 6 -45z"
       id="path3342"
       style="fill:#a71c2e;fill-opacity:1" />
  </g>
  <path
     style="fill:none"
     d="M 461.82766,912.27907 C 422.03668,875.06709 397.23886,854.07025 312.55814,785.88945 258.00007,741.96195 238.08224,725.23255 216,704.78824 163.6465,656.31802 136.80682,624.49949 114.99671,585.0485 91.569385,542.67224 80.761774,493.29704 85.457204,450.09554 c 3.028286,-27.86252 13.797224,-61.075 26.109386,-80.52395 3.76698,-5.95053 3.81552,-8.59235 0.5245,-28.54833 -1.82006,-11.03643 -2.52526,-21.22836 -2.94476,-42.55914 -1.03921,-52.84201 4.02869,-88.14639 19.20868,-133.81296 13.68248,-41.16152 30.72907,-75.702795 55.39452,-112.245122 14.17885,-21.00623 12.90971,-22.804441 13.59498,19.262267 0.61357,37.664515 1.6143,48.578545 6.99047,76.238675 9.08989,46.76694 27.92118,90.77507 51.08001,119.37237 l 4.57623,5.65088 17.35323,-0.37166 c 24.69861,-0.52898 40.70564,1.65879 65.91136,9.00851 39.06446,11.39078 82.2432,35.57849 119.97627,67.20786 9.19624,7.70867 17.08479,14.01576 17.53009,14.01576 0.44531,0 6.23274,-4.68187 12.86094,-10.40415 25.28436,-21.82854 46.12224,-36.12812 71.6952,-49.19942 20.605,-10.53198 37.68124,-17.52293 54.92596,-22.48648 19.90933,-5.7305 31.10065,-7.27204 58.06314,-7.99788 l 24.16787,-0.65059 6.9143,-9.33557 c 22.56476,-30.46653 37.5715,-66.31393 46.83606,-111.87988 6.26796,-30.82771 7.25494,-41.92568 7.2833,-81.895956 0.0298,-41.907306 -1.41218,-39.375583 11.60881,-20.382634 39.84615,58.12118 65.59766,123.30273 74.85841,189.47971 3.90057,27.8733 3.05047,80.49469 -1.75391,108.5668 -0.94566,5.52558 -1.71456,11.55349 -1.70864,13.39535 0.007,1.92214 3.28815,9.76895 7.70368,18.4186 17.82926,34.92598 24.4292,68.21507 21.57821,108.83721 -3.91549,55.7896 -27.98269,107.74063 -74.72607,161.30233 -12.45554,14.2724 -40.99721,42.93008 -60.07587,60.32007 -22.09628,20.14051 -60.99903,52.29382 -130.94705,108.22839 -38.6106,30.8753 -79.04965,65.63126 -110.21139,94.72287 -9.9651,9.30309 -18.63202,16.91472 -19.25979,16.91472 -0.62778,0 -9.06424,-7.40931 -18.74767,-16.46512 z"
     id="path4150"
     inkscape:connector-curvature="0"
     transform="scale(0.8,0.8)" />
  <ellipse
     style="fill:none;fill-opacity:1;stroke:#a71c2e;stroke-width:47.39527512;stroke-linecap:butt;stroke-linejoin:miter;stroke-miterlimit:4;stroke-dasharray:none;stroke-opacity:1"
     id="path4152-6"
     cx="384.00003"
     cy="100.91161"
     rx="178.23357"
     ry="62.773102" />
  <ellipse
     style="fill:none;fill-opacity:1;stroke:#ffff2e;stroke-width:41.72598425;stroke-linecap:butt;stroke-linejoin:miter;stroke-miterlimit:4;stroke-dasharray:none;stroke-opacity:1"
     id="path4152"
     cx="383.98138"
     cy="101.30232"
     rx="178.23357"
     ry="62.773102" />
</svg>
